<svg height="512" viewBox="0 0 128 128" width="512" xmlns="http://www.w3.org/2000/svg"><g><path d="m33.097 36.201 7.658 85.493h46.49l7.658-85.493z" fill="#ef983b"/><path d="m70.32 6.306-.955 10.659h7l.955-10.659z" fill="#8c3f07"/><g fill="#f2e7cb"><path d="m100.677 36.2v-4.27a7.726 7.726 0 0 0 -7.726-7.726h-57.9a7.726 7.726 0 0 0 -7.726 7.726v4.27z"/><path d="m43.073 16.965h41.854v7.24h-41.854z"/><path d="m30.787 52.43 3.583 40h59.26l3.583-40z"/></g><ellipse cx="64" cy="72.43" fill="#8c3f07" rx="13.559" ry="9.861" transform="matrix(.707 -.707 .707 .707 -32.47 66.469)"/><g fill="#422002"><path d="m92.951 22.455h-6.274v-5.49a1.75 1.75 0 0 0 -1.75-1.75h-6.648l.783-8.752a1.749 1.749 0 0 0 -1.743-1.906h-7a1.75 1.75 0 0 0 -1.743 1.593l-.811 9.065h-24.692a1.75 1.75 0 0 0 -1.75 1.75v5.49h-6.274a9.487 9.487 0 0 0 -9.476 9.476v4.269a1.75 1.75 0 0 0 1.75 1.75h4.177l1.14 12.729h-1.85a1.751 1.751 0 0 0 -1.743 1.906l.832 9.29a1.75 1.75 0 1 0 3.486-.312l-.665-7.383h62.6l-1.008 11.24a1.751 1.751 0 0 0 1.587 1.9c.053 0 .1.007.158.007a1.75 1.75 0 0 0 1.741-1.594l1.178-13.147a1.751 1.751 0 0 0 -1.743-1.906h-1.85l1.137-12.729h4.174a1.75 1.75 0 0 0 1.75-1.75v-4.27a9.487 9.487 0 0 0 -9.473-9.476zm-21.031-14.398h3.485l-.64 7.158h-3.486zm-27.1 10.658h38.357v3.74h-38.354zm47.029 31.965h-55.7l-1.14-12.729h57.98zm7.078-16.229h-69.854v-2.52a5.982 5.982 0 0 1 5.976-5.976h57.9a5.982 5.982 0 0 1 5.976 5.976z"/><path d="m32.949 76.568a1.751 1.751 0 0 0 1.587-1.9l-.4-4.48a1.75 1.75 0 0 0 -3.487.312l.4 4.481a1.75 1.75 0 0 0 1.741 1.594c.053 0 .11-.003.159-.007z"/><path d="m95.508 71.47a1.764 1.764 0 0 0 -1.9 1.587l-1.579 17.623h-56.058l-.7-7.805a1.75 1.75 0 1 0 -3.486.313l.842 9.4a1.751 1.751 0 0 0 1.743 1.592h2.163l2.48 27.67a1.75 1.75 0 0 0 1.743 1.593h46.488a1.75 1.75 0 0 0 1.743-1.593l2.48-27.67h2.163a1.751 1.751 0 0 0 1.743-1.594l1.727-19.216a1.751 1.751 0 0 0 -1.592-1.9zm-9.864 48.473h-43.288l-2.308-25.763h47.9z"/><path d="m53.137 83.212c.014.014.024.029.038.043a9.89 9.89 0 0 0 7.147 2.756 17.325 17.325 0 0 0 11.888-5.371 18.113 18.113 0 0 0 5.228-9.786 10.418 10.418 0 0 0 -2.523-9.147c-.017-.02-.034-.04-.052-.059s-.024-.029-.038-.043c-4.528-4.53-13.066-3.354-19.035 2.614a18.122 18.122 0 0 0 -5.228 9.787 10.417 10.417 0 0 0 2.523 9.146c.015.021.034.041.052.06zm20.844-12.9a14.61 14.61 0 0 1 -4.246 7.858c-4.24 4.239-9.927 5.559-13.271 3.274a12.678 12.678 0 0 1 8.048-7.344 15.9 15.9 0 0 0 9.313-7.44 8.516 8.516 0 0 1 .156 3.648zm-19.962 4.24a14.607 14.607 0 0 1 4.246-7.858 13.91 13.91 0 0 1 9.383-4.394 6.816 6.816 0 0 1 3.89 1.113 12.677 12.677 0 0 1 -8.05 7.34 15.908 15.908 0 0 0 -9.313 7.44 8.512 8.512 0 0 1 -.156-3.641z"/><path d="m48.746 115.435h13.065a1.75 1.75 0 1 0 0-3.5h-13.065a1.75 1.75 0 0 0 0 3.5z"/></g></g></svg>